<svg xmlns="http://www.w3.org/2000/svg" xmlns:xlink="http://www.w3.org/1999/xlink" width="500" zoomAndPan="magnify" viewBox="0 0 375 374.999991" height="500" preserveAspectRatio="xMidYMid meet" version="1.0"><defs><g/><clipPath id="d6697308b0"><path d="M 26.5 163.160156 L 75.179688 163.160156 L 75.179688 211.839844 L 26.5 211.839844 Z M 26.5 163.160156 " clip-rule="nonzero"/></clipPath><clipPath id="4e0b61881e"><path d="M 50.839844 163.160156 C 37.398438 163.160156 26.5 174.054688 26.5 187.5 C 26.5 200.941406 37.398438 211.839844 50.839844 211.839844 C 64.285156 211.839844 75.179688 200.941406 75.179688 187.5 C 75.179688 174.054688 64.285156 163.160156 50.839844 163.160156 Z M 50.839844 163.160156 " clip-rule="nonzero"/></clipPath><clipPath id="1a0d1b24d5"><path d="M 40.816406 177.472656 L 60.871094 177.472656 L 60.871094 197.527344 L 40.816406 197.527344 Z M 40.816406 177.472656 " clip-rule="nonzero"/></clipPath><clipPath id="0af7675c73"><path d="M 50.84375 177.472656 C 45.304688 177.472656 40.816406 181.960938 40.816406 187.5 C 40.816406 193.039062 45.304688 197.527344 50.84375 197.527344 C 56.378906 197.527344 60.871094 193.039062 60.871094 187.5 C 60.871094 181.960938 56.378906 177.472656 50.84375 177.472656 Z M 50.84375 177.472656 " clip-rule="nonzero"/></clipPath></defs><g fill="#000000" fill-opacity="1"><g transform="translate(88.010617, 203.690395)"><g><path d="M 7.828125 -29.015625 L 7.828125 -18.171875 L 19.65625 -18.171875 L 19.65625 -14.671875 L 7.828125 -14.671875 L 7.828125 -3.5 L 21.046875 -3.5 L 21.046875 0 L 3.59375 0 L 3.59375 -32.515625 L 21.046875 -32.515625 L 21.046875 -29.015625 Z M 7.828125 -29.015625 "/></g></g></g><g fill="#000000" fill-opacity="1"><g transform="translate(111.901708, 203.690395)"><g><path d="M 2 -12.859375 C 2 -15.460938 2.523438 -17.75 3.578125 -19.71875 C 4.640625 -21.695312 6.09375 -23.226562 7.9375 -24.3125 C 9.789062 -25.394531 11.847656 -25.9375 14.109375 -25.9375 C 16.347656 -25.9375 18.289062 -25.457031 19.9375 -24.5 C 21.582031 -23.539062 22.804688 -22.328125 23.609375 -20.859375 L 23.609375 -25.53125 L 27.90625 -25.53125 L 27.90625 0 L 23.609375 0 L 23.609375 -4.75 C 22.773438 -3.257812 21.523438 -2.023438 19.859375 -1.046875 C 18.203125 -0.0664062 16.269531 0.421875 14.0625 0.421875 C 11.800781 0.421875 9.753906 -0.132812 7.921875 -1.25 C 6.085938 -2.375 4.640625 -3.941406 3.578125 -5.953125 C 2.523438 -7.972656 2 -10.273438 2 -12.859375 Z M 23.609375 -12.8125 C 23.609375 -14.738281 23.21875 -16.414062 22.4375 -17.84375 C 21.664062 -19.269531 20.617188 -20.363281 19.296875 -21.125 C 17.984375 -21.882812 16.535156 -22.265625 14.953125 -22.265625 C 13.367188 -22.265625 11.921875 -21.890625 10.609375 -21.140625 C 9.304688 -20.398438 8.265625 -19.316406 7.484375 -17.890625 C 6.710938 -16.460938 6.328125 -14.785156 6.328125 -12.859375 C 6.328125 -10.898438 6.710938 -9.195312 7.484375 -7.75 C 8.265625 -6.3125 9.304688 -5.210938 10.609375 -4.453125 C 11.921875 -3.691406 13.367188 -3.3125 14.953125 -3.3125 C 16.535156 -3.3125 17.984375 -3.691406 19.296875 -4.453125 C 20.617188 -5.210938 21.664062 -6.3125 22.4375 -7.75 C 23.21875 -9.195312 23.609375 -10.882812 23.609375 -12.8125 Z M 23.609375 -12.8125 "/></g></g></g><g fill="#000000" fill-opacity="1"><g transform="translate(143.383923, 203.690395)"><g><path d="M 7.828125 -21.375 C 8.566406 -22.832031 9.628906 -23.960938 11.015625 -24.765625 C 12.398438 -25.578125 14.082031 -25.984375 16.0625 -25.984375 L 16.0625 -21.609375 L 14.953125 -21.609375 C 10.203125 -21.609375 7.828125 -19.03125 7.828125 -13.875 L 7.828125 0 L 3.59375 0 L 3.59375 -25.53125 L 7.828125 -25.53125 Z M 7.828125 -21.375 "/></g></g></g><g fill="#000000" fill-opacity="1"><g transform="translate(160.755032, 203.690395)"><g><path d="M 7.828125 -34.46875 L 7.828125 0 L 3.59375 0 L 3.59375 -34.46875 Z M 7.828125 -34.46875 "/></g></g></g><g fill="#000000" fill-opacity="1"><g transform="translate(172.211576, 203.690395)"><g><path d="M 25.578125 -25.53125 L 10.203125 12.015625 L 5.828125 12.015625 L 10.859375 -0.28125 L 0.5625 -25.53125 L 5.265625 -25.53125 L 13.28125 -4.84375 L 21.1875 -25.53125 Z M 25.578125 -25.53125 "/></g></g></g><g fill="#000000" fill-opacity="1"><g transform="translate(198.43123, 203.690395)"><g><path d="M 13.875 0.328125 C 11.738281 0.328125 9.820312 -0.0507812 8.125 -0.8125 C 6.4375 -1.570312 5.109375 -2.628906 4.140625 -3.984375 C 3.179688 -5.335938 2.6875 -6.894531 2.65625 -8.65625 L 7.171875 -8.65625 C 7.328125 -7.132812 7.957031 -5.851562 9.0625 -4.8125 C 10.164062 -3.78125 11.769531 -3.265625 13.875 -3.265625 C 15.894531 -3.265625 17.488281 -3.765625 18.65625 -4.765625 C 19.820312 -5.773438 20.40625 -7.070312 20.40625 -8.65625 C 20.40625 -9.90625 20.0625 -10.914062 19.375 -11.6875 C 18.695312 -12.46875 17.84375 -13.054688 16.8125 -13.453125 C 15.789062 -13.859375 14.410156 -14.296875 12.671875 -14.765625 C 10.523438 -15.328125 8.804688 -15.882812 7.515625 -16.4375 C 6.234375 -17 5.132812 -17.875 4.21875 -19.0625 C 3.300781 -20.257812 2.84375 -21.867188 2.84375 -23.890625 C 2.84375 -25.660156 3.289062 -27.226562 4.1875 -28.59375 C 5.09375 -29.957031 6.359375 -31.015625 7.984375 -31.765625 C 9.617188 -32.515625 11.488281 -32.890625 13.59375 -32.890625 C 16.644531 -32.890625 19.140625 -32.125 21.078125 -30.59375 C 23.015625 -29.070312 24.109375 -27.054688 24.359375 -24.546875 L 19.703125 -24.546875 C 19.546875 -25.785156 18.890625 -26.878906 17.734375 -27.828125 C 16.585938 -28.773438 15.070312 -29.25 13.1875 -29.25 C 11.414062 -29.25 9.96875 -28.789062 8.84375 -27.875 C 7.726562 -26.957031 7.171875 -25.675781 7.171875 -24.03125 C 7.171875 -22.851562 7.503906 -21.890625 8.171875 -21.140625 C 8.835938 -20.398438 9.660156 -19.832031 10.640625 -19.4375 C 11.617188 -19.050781 12.992188 -18.613281 14.765625 -18.125 C 16.910156 -17.53125 18.632812 -16.945312 19.9375 -16.375 C 21.238281 -15.800781 22.351562 -14.914062 23.28125 -13.71875 C 24.21875 -12.519531 24.6875 -10.894531 24.6875 -8.84375 C 24.6875 -7.257812 24.265625 -5.769531 23.421875 -4.375 C 22.585938 -2.976562 21.347656 -1.84375 19.703125 -0.96875 C 18.054688 -0.101562 16.113281 0.328125 13.875 0.328125 Z M 13.875 0.328125 "/></g></g></g><g fill="#000000" fill-opacity="1"><g transform="translate(225.768597, 203.690395)"><g><path d="M 5.78125 -29.671875 C 4.96875 -29.671875 4.28125 -29.945312 3.71875 -30.5 C 3.164062 -31.0625 2.890625 -31.75 2.890625 -32.5625 C 2.890625 -33.363281 3.164062 -34.046875 3.71875 -34.609375 C 4.28125 -35.171875 4.96875 -35.453125 5.78125 -35.453125 C 6.550781 -35.453125 7.207031 -35.171875 7.75 -34.609375 C 8.300781 -34.046875 8.578125 -33.363281 8.578125 -32.5625 C 8.578125 -31.75 8.300781 -31.0625 7.75 -30.5 C 7.207031 -29.945312 6.550781 -29.671875 5.78125 -29.671875 Z M 7.828125 -25.53125 L 7.828125 0 L 3.59375 0 L 3.59375 -25.53125 Z M 7.828125 -25.53125 "/></g></g></g><g fill="#000000" fill-opacity="1"><g transform="translate(237.225134, 203.690395)"><g><path d="M 14.109375 -25.9375 C 16.316406 -25.9375 18.25 -25.457031 19.90625 -24.5 C 21.570312 -23.539062 22.804688 -22.328125 23.609375 -20.859375 L 23.609375 -25.53125 L 27.90625 -25.53125 L 27.90625 0.5625 C 27.90625 2.882812 27.40625 4.953125 26.40625 6.765625 C 25.414062 8.585938 23.992188 10.007812 22.140625 11.03125 C 20.296875 12.0625 18.148438 12.578125 15.703125 12.578125 C 12.347656 12.578125 9.550781 11.785156 7.3125 10.203125 C 5.070312 8.617188 3.753906 6.457031 3.359375 3.71875 L 7.546875 3.71875 C 8.015625 5.28125 8.976562 6.53125 10.4375 7.46875 C 11.894531 8.414062 13.648438 8.890625 15.703125 8.890625 C 18.023438 8.890625 19.921875 8.160156 21.390625 6.703125 C 22.867188 5.242188 23.609375 3.195312 23.609375 0.5625 L 23.609375 -4.796875 C 22.773438 -3.304688 21.535156 -2.0625 19.890625 -1.0625 C 18.242188 -0.0703125 16.316406 0.421875 14.109375 0.421875 C 11.847656 0.421875 9.789062 -0.132812 7.9375 -1.25 C 6.09375 -2.375 4.640625 -3.941406 3.578125 -5.953125 C 2.523438 -7.972656 2 -10.273438 2 -12.859375 C 2 -15.460938 2.523438 -17.75 3.578125 -19.71875 C 4.640625 -21.695312 6.09375 -23.226562 7.9375 -24.3125 C 9.789062 -25.394531 11.847656 -25.9375 14.109375 -25.9375 Z M 23.609375 -12.8125 C 23.609375 -14.738281 23.21875 -16.414062 22.4375 -17.84375 C 21.664062 -19.269531 20.617188 -20.363281 19.296875 -21.125 C 17.984375 -21.882812 16.535156 -22.265625 14.953125 -22.265625 C 13.367188 -22.265625 11.921875 -21.890625 10.609375 -21.140625 C 9.304688 -20.398438 8.265625 -19.316406 7.484375 -17.890625 C 6.710938 -16.460938 6.328125 -14.785156 6.328125 -12.859375 C 6.328125 -10.898438 6.710938 -9.195312 7.484375 -7.75 C 8.265625 -6.3125 9.304688 -5.210938 10.609375 -4.453125 C 11.921875 -3.691406 13.367188 -3.3125 14.953125 -3.3125 C 16.535156 -3.3125 17.984375 -3.691406 19.296875 -4.453125 C 20.617188 -5.210938 21.664062 -6.3125 22.4375 -7.75 C 23.21875 -9.195312 23.609375 -10.882812 23.609375 -12.8125 Z M 23.609375 -12.8125 "/></g></g></g><g fill="#000000" fill-opacity="1"><g transform="translate(268.707348, 203.690395)"><g><path d="M 16.015625 -25.984375 C 19.128906 -25.984375 21.644531 -25.046875 23.5625 -23.171875 C 25.488281 -21.296875 26.453125 -18.585938 26.453125 -15.046875 L 26.453125 0 L 22.265625 0 L 22.265625 -14.4375 C 22.265625 -16.988281 21.625 -18.9375 20.34375 -20.28125 C 19.070312 -21.632812 17.335938 -22.3125 15.140625 -22.3125 C 12.898438 -22.3125 11.117188 -21.613281 9.796875 -20.21875 C 8.484375 -18.820312 7.828125 -16.785156 7.828125 -14.109375 L 7.828125 0 L 3.59375 0 L 3.59375 -25.53125 L 7.828125 -25.53125 L 7.828125 -21.890625 C 8.660156 -23.191406 9.800781 -24.195312 11.25 -24.90625 C 12.695312 -25.625 14.285156 -25.984375 16.015625 -25.984375 Z M 16.015625 -25.984375 "/></g></g></g><g fill="#000000" fill-opacity="1"><g transform="translate(298.512996, 203.690395)"><g><path d="M 2 -12.859375 C 2 -15.460938 2.523438 -17.75 3.578125 -19.71875 C 4.640625 -21.695312 6.09375 -23.226562 7.9375 -24.3125 C 9.789062 -25.394531 11.847656 -25.9375 14.109375 -25.9375 C 16.347656 -25.9375 18.289062 -25.457031 19.9375 -24.5 C 21.582031 -23.539062 22.804688 -22.328125 23.609375 -20.859375 L 23.609375 -25.53125 L 27.90625 -25.53125 L 27.90625 0 L 23.609375 0 L 23.609375 -4.75 C 22.773438 -3.257812 21.523438 -2.023438 19.859375 -1.046875 C 18.203125 -0.0664062 16.269531 0.421875 14.0625 0.421875 C 11.800781 0.421875 9.753906 -0.132812 7.921875 -1.25 C 6.085938 -2.375 4.640625 -3.941406 3.578125 -5.953125 C 2.523438 -7.972656 2 -10.273438 2 -12.859375 Z M 23.609375 -12.8125 C 23.609375 -14.738281 23.21875 -16.414062 22.4375 -17.84375 C 21.664062 -19.269531 20.617188 -20.363281 19.296875 -21.125 C 17.984375 -21.882812 16.535156 -22.265625 14.953125 -22.265625 C 13.367188 -22.265625 11.921875 -21.890625 10.609375 -21.140625 C 9.304688 -20.398438 8.265625 -19.316406 7.484375 -17.890625 C 6.710938 -16.460938 6.328125 -14.785156 6.328125 -12.859375 C 6.328125 -10.898438 6.710938 -9.195312 7.484375 -7.75 C 8.265625 -6.3125 9.304688 -5.210938 10.609375 -4.453125 C 11.921875 -3.691406 13.367188 -3.3125 14.953125 -3.3125 C 16.535156 -3.3125 17.984375 -3.691406 19.296875 -4.453125 C 20.617188 -5.210938 21.664062 -6.3125 22.4375 -7.75 C 23.21875 -9.195312 23.609375 -10.882812 23.609375 -12.8125 Z M 23.609375 -12.8125 "/></g></g></g><g fill="#000000" fill-opacity="1"><g transform="translate(329.995211, 203.690395)"><g><path d="M 7.828125 -34.46875 L 7.828125 0 L 3.59375 0 L 3.59375 -34.46875 Z M 7.828125 -34.46875 "/></g></g></g><g clip-path="url(#d6697308b0)"><g clip-path="url(#4e0b61881e)"><path stroke-linecap="butt" transform="matrix(0.75, 0, 0, 0.75, 26.500965, 163.15852)" fill="none" stroke-linejoin="miter" d="M 32.45184 0.00218209 C 14.529964 0.00218209 -0.00128699 14.528225 -0.00128699 32.455309 C -0.00128699 50.377185 14.529964 64.908436 32.45184 64.908436 C 50.378925 64.908436 64.904967 50.377185 64.904967 32.455309 C 64.904967 14.528225 50.378925 0.00218209 32.45184 0.00218209 Z M 32.45184 0.00218209 " stroke="#000000" stroke-width="4" stroke-opacity="1" stroke-miterlimit="4"/></g></g><g clip-path="url(#1a0d1b24d5)"><g clip-path="url(#0af7675c73)"><path fill="#000000" d="M 40.816406 177.472656 L 60.871094 177.472656 L 60.871094 197.527344 L 40.816406 197.527344 Z M 40.816406 177.472656 " fill-opacity="1" fill-rule="nonzero"/></g></g></svg>